<svg width="34" height="34" viewBox="0 0 34 34" fill="none" xmlns="http://www.w3.org/2000/svg">
  <path fill-rule="evenodd" clip-rule="evenodd" d="M32.7463 19.125H16.1288C14.875 19.125 14.875 18.2537 14.875 17C14.875 15.7463 14.875 14.875 16.1288 14.875H32.725C33.9788 14.875 33.9788 15.7463 33.9788 17C33.9788 18.2537 33.9788 19.125 32.725 19.125H32.7463V19.125ZM20.3788 8.5C19.125 8.5 19.125 7.62875 19.125 6.375C19.125 5.12125 19.125 4.25 20.3788 4.25H32.725C33.9788 4.25 33.9788 5.12125 33.9788 6.375C33.9788 7.62875 33.9788 8.5 32.725 8.5H20.3788ZM0 8.30875L2.99625 5.54625L6.375 8.925L15.0663 0L18.0625 2.99625L6.375 14.6837L0 8.30875ZM16.1288 25.5H32.725C33.9788 25.5 33.9788 26.3713 33.9788 27.625C33.9788 28.8787 33.9788 29.75 32.725 29.75H16.1288C14.875 29.75 14.875 28.8787 14.875 27.625C14.875 26.3713 14.875 25.5 16.1288 25.5Z" fill="black" />
</svg>