<?xml version="1.0" standalone="no"?>
<!DOCTYPE svg PUBLIC "-//W3C//DTD SVG 20010904//EN"
 "http://www.w3.org/TR/2001/REC-SVG-20010904/DTD/svg10.dtd">
<svg version="1.0" xmlns="http://www.w3.org/2000/svg"
 width="700.000000pt" height="700.000000pt" viewBox="0 0 700.000000 700.000000"
 preserveAspectRatio="xMidYMid meet">

<g transform="translate(0.000000,700.000000) scale(0.100000,-0.100000)"
fill="#125300" stroke="none">
<path d="M2430 6773 c-332 -19 -869 -95 -956 -135 -30 -14 -54 -56 -54 -93 0
-65 63 -122 124 -112 17 3 92 17 166 31 361 67 668 91 1155 91 463 -1 695 -19
1082 -86 565 -97 1020 -278 1207 -480 171 -184 99 -367 -215 -547 -819 -469
-2700 -548 -3825 -161 -443 152 -690 350 -671 536 17 161 221 324 582 464 151
58 175 78 175 145 0 37 -6 51 -29 75 -43 43 -95 40 -235 -15 -387 -151 -632
-346 -696 -554 -20 -63 -20 -97 -20 -2101 0 -2248 -5 -2082 62 -2199 105 -185
394 -377 741 -492 78 -25 107 -22 148 20 23 23 29 37 29 74 0 65 -25 88 -145
132 -290 106 -517 255 -587 387 -23 42 -23 45 -26 519 l-3 478 97 -66 c382
-259 1067 -434 1899 -485 212 -13 826 -7 987 10 55 6 108 17 121 26 46 30 62
109 31 154 -30 43 -70 51 -185 40 -207 -20 -746 -23 -998 -5 -723 51 -1302
191 -1656 401 -157 93 -262 198 -285 285 -6 24 -9 205 -8 494 l3 457 62 -46
c453 -329 1436 -533 2473 -512 465 10 967 63 1025 109 62 49 50 154 -21 184
-33 14 -50 13 -213 -10 -333 -48 -516 -60 -931 -60 -415 0 -595 12 -930 60
-665 95 -1163 278 -1376 507 -97 103 -94 84 -94 623 l0 463 64 -49 c306 -231
932 -414 1652 -485 1197 -116 2503 93 3025 485 30 22 57 40 61 40 4 0 6 -210
5 -467 l-2 -468 -24 -50 c-30 -60 -113 -146 -199 -204 -110 -74 -317 -168
-502 -227 -218 -69 -221 -71 -244 -118 -17 -36 -18 -43 -5 -80 9 -27 25 -47
48 -60 31 -18 39 -18 92 -7 87 18 313 94 443 150 124 54 226 110 322 178 34
23 64 43 66 43 3 0 6 -111 7 -246 2 -266 5 -279 57 -302 59 -28 120 -8 149 48
23 44 22 2243 0 2339 -23 96 -71 177 -155 262 -316 320 -1048 542 -2010 609
-131 9 -723 11 -860 3z"/>
<path d="M2447 4360 c-30 -23 -47 -74 -40 -114 7 -33 54 -73 96 -81 18 -3 184
-5 369 -3 324 3 338 4 365 24 53 39 56 124 6 170 l-26 24 -372 0 c-360 0 -373
-1 -398 -20z"/>
<path d="M5175 3283 c-263 -13 -539 -103 -762 -248 -362 -236 -609 -617 -677
-1044 -28 -177 -20 -414 20 -587 101 -438 402 -818 809 -1022 126 -63 210 -93
360 -128 110 -25 137 -28 320 -28 216 0 306 13 481 69 152 50 382 174 444 240
36 39 33 107 -7 147 -48 48 -93 44 -181 -14 -147 -98 -304 -164 -487 -204
-120 -26 -379 -24 -505 4 -351 77 -632 266 -830 557 -282 416 -294 978 -28
1408 254 413 693 645 1177 624 326 -14 627 -146 858 -376 195 -195 327 -445
374 -711 19 -107 16 -364 -5 -465 -36 -170 -111 -349 -197 -477 -53 -78 -62
-104 -49 -143 17 -51 53 -78 104 -79 55 -1 77 18 148 128 300 468 316 1088 41
1571 -250 437 -716 737 -1195 770 -46 3 -99 7 -118 8 -19 2 -62 2 -95 0z"/>
<path d="M2445 3048 c-36 -28 -50 -89 -30 -131 28 -60 47 -65 295 -72 124 -3
290 -2 369 2 l144 9 28 32 c42 47 40 103 -4 147 l-33 33 -372 0 c-353 0 -374
-1 -397 -20z"/>
<path d="M4644 2392 c-17 -11 -36 -34 -44 -51 -27 -65 -17 -79 246 -342 l246
-247 -245 -245 c-151 -151 -249 -256 -253 -272 -15 -61 29 -131 87 -136 65 -6
70 -2 321 248 l248 248 243 -243 c265 -265 281 -276 346 -244 22 10 43 31 53
53 32 65 21 81 -244 346 l-243 243 248 248 c253 254 255 256 248 322 -8 73
-100 114 -161 72 -14 -9 -131 -122 -259 -251 l-234 -233 -247 247 c-225 224
-250 247 -286 251 -28 4 -48 -1 -70 -14z"/>
<path d="M2449 1738 c-40 -24 -56 -82 -36 -130 27 -64 51 -70 312 -76 126 -3
288 -1 360 3 129 7 129 7 162 40 45 45 46 100 4 147 l-29 32 -372 1 c-334 0
-376 -2 -401 -17z"/>
<path d="M1483 1216 c-74 -34 -84 -147 -16 -192 44 -28 406 -88 723 -119 360
-35 910 -37 1265 -5 127 12 158 24 182 71 24 45 16 88 -22 126 l-36 36 -87 -7
c-307 -22 -496 -28 -787 -22 -402 7 -687 33 -1000 91 -71 14 -143 27 -160 30
-16 3 -44 -1 -62 -9z"/>
</g>
</svg>
